<?xml version="1.0" encoding="UTF-8"?>
<svg id="Layer_1" data-name="Layer 1" xmlns="http://www.w3.org/2000/svg" viewBox="0 0 309.88 174.39">
  <defs>
    <style>
      .cls-1 {
        fill: #5e409d;
      }

      .cls-1, .cls-2 {
        stroke-width: 0px;
      }

      .cls-2 {
        fill: #fff;
      }
    </style>
  </defs>
  <g>
    <rect class="cls-1" x="28.78" y="28.78" width="116.84" height="116.84" rx="10.73" ry="10.73"/>
    <g>
      <path class="cls-2" d="m66.18,79.19v.41h-6.91l-1.06-5.44h-6.71l-1.06,5.44h-6.58v-.41l6.67-28.22h9.04l6.62,28.22Zm-9.04-10.67l-2.17-11.12h-.16l-2.21,11.12h4.54Z"/>
      <path class="cls-2" d="m78.4,50.98h8.46c7.73,0,11.74,5.32,11.74,14.31,0,8.38-3.6,14.31-11.74,14.31h-8.46v-28.63Zm8.1,22.94c3.88,0,5.56-2.66,5.56-8.63s-1.68-8.59-5.56-8.59h-2.09v17.22h2.09Z"/>
      <path class="cls-2" d="m111.36,50.98h6.42v22.9h12.19v5.72h-18.61v-28.63Z"/>
      <path class="cls-2" d="m44.38,94.79h6.42v22.9h12.19v5.72h-18.61v-28.63Z"/>
      <path class="cls-2" d="m75.79,94.79h8.46c7.73,0,11.74,5.32,11.74,14.31,0,8.38-3.6,14.31-11.74,14.31h-8.46v-28.63Zm8.1,22.94c3.88,0,5.56-2.66,5.56-8.63s-1.68-8.59-5.56-8.59h-2.09v17.22h2.09Z"/>
      <path class="cls-2" d="m130.54,123.01v.41h-6.91l-1.06-5.44h-6.71l-1.06,5.44h-6.58v-.41l6.67-28.22h9.04l6.62,28.22Zm-9.04-10.67l-2.17-11.12h-.16l-2.21,11.12h4.54Z"/>
    </g>
  </g>
  <g>
    <g>
      <path class="cls-1" d="m166.9,50.56h-2.88l-4.89,12.58h3.06l.9-2.39h4.97l.89,2.39h3.06l-4.89-12.58h-.22Zm-2.86,7.64l1.53-4.09,1.53,4.09h-3.06Z"/>
      <path class="cls-1" d="m185.87,51.37c-1.02-.54-2.2-.81-3.53-.81h-4.12v12.58h4.12c1.33,0,2.5-.27,3.52-.81,1.02-.54,1.82-1.28,2.4-2.23s.87-2.03.87-3.25-.29-2.32-.86-3.26c-.58-.94-1.38-1.68-2.4-2.22Zm.03,6.91c-.19.44-.46.81-.81,1.13-.35.32-.76.56-1.22.74-.47.17-.98.26-1.53.26h-1.22v-7.12h1.22c.55,0,1.06.09,1.53.26.47.17.87.42,1.22.74.35.32.62.69.81,1.13.19.44.29.91.29,1.43s-.1.99-.29,1.43Z"/>
      <polygon class="cls-1" points="198.64 58.09 203.08 58.09 203.08 55.52 198.64 55.52 198.64 53.22 203.95 53.22 203.95 50.56 198.64 50.56 197.85 50.56 195.75 50.56 195.75 63.15 197.85 63.15 198.64 63.15 204.04 63.15 204.04 60.48 198.64 60.48 198.64 58.09"/>
      <polygon class="cls-1" points="214.05 50.56 211.15 50.56 211.15 63.15 212.88 63.15 214.05 63.15 219.41 63.15 219.41 60.48 214.05 60.48 214.05 50.56"/>
      <path class="cls-1" d="m232.49,50.56h-2.88l-4.89,12.58h3.06l.9-2.39h4.97l.89,2.39h3.06l-4.89-12.58h-.22Zm-2.86,7.64l1.53-4.09,1.53,4.09h-3.06Z"/>
      <rect class="cls-1" x="243.82" y="50.56" width="2.89" height="12.58"/>
      <path class="cls-1" d="m261.66,51.37c-1.02-.54-2.2-.81-3.53-.81h-4.12v12.58h4.12c1.33,0,2.5-.27,3.52-.81,1.02-.54,1.82-1.28,2.4-2.23s.87-2.03.87-3.25-.29-2.32-.86-3.26c-.58-.94-1.38-1.68-2.4-2.22Zm.03,6.91c-.19.44-.46.81-.81,1.13-.35.32-.76.56-1.22.74-.47.17-.98.26-1.53.26h-1.22v-7.12h1.22c.55,0,1.06.09,1.53.26.47.17.87.42,1.22.74.35.32.62.69.81,1.13.19.44.29.91.29,1.43s-.1.99-.29,1.43Z"/>
      <polygon class="cls-1" points="274.43 60.48 274.43 58.09 278.87 58.09 278.87 55.52 274.43 55.52 274.43 53.22 279.73 53.22 279.73 50.56 274.43 50.56 273.64 50.56 271.54 50.56 271.54 63.15 273.64 63.15 274.43 63.15 279.82 63.15 279.82 60.48 274.43 60.48"/>
    </g>
    <g>
      <polygon class="cls-1" points="164.43 67.76 160.87 67.76 160.87 82.69 170.07 82.69 170.07 79.57 164.43 79.57 164.43 67.76"/>
      <polygon class="cls-1" points="173.98 82.69 183.96 82.69 183.96 79.57 177.54 79.57 177.54 76.8 183.56 76.8 183.56 73.71 177.54 73.71 177.54 70.84 183.96 70.84 183.96 67.76 173.98 67.76 173.98 82.69"/>
      <path class="cls-1" d="m192.68,67.76l-5.03,14.93h3.78l.81-2.63h5.15l.81,2.63h3.75l-4.75-14.93h-4.53Zm.47,9.67l1.75-5.46,1.69,5.46h-3.44Z"/>
      <path class="cls-1" d="m215.94,75.87c1.03-.85,1.55-1.98,1.55-3.39s-.52-2.59-1.55-3.44-2.49-1.28-4.36-1.28h-5.83v14.93h3.56v-5.54h1.43l2.8,5.54h4.66l-3.78-6c.57-.21,1.09-.47,1.51-.82Zm-6.63-5.03h2.27c.75,0,1.31.19,1.69.57.37.38.56.87.56,1.46s-.22,1.04-.66,1.41c-.44.37-1.1.55-1.99.55h-1.87v-3.99Z"/>
      <polygon class="cls-1" points="231.72 76.42 225.96 67.76 222.25 67.76 222.25 82.69 225.81 82.69 225.81 73.65 231.84 82.69 235.28 82.69 235.28 67.76 231.72 67.76 231.72 76.42"/>
      <rect class="cls-1" x="240.55" y="67.76" width="3.56" height="14.93"/>
      <polygon class="cls-1" points="258.81 76.42 253.06 67.76 249.34 67.76 249.34 82.69 252.9 82.69 252.9 73.65 258.93 82.69 262.37 82.69 262.37 67.76 258.81 67.76 258.81 76.42"/>
      <path class="cls-1" d="m273.63,74.77v2.18l2.97.02v.13c0,.5-.13.95-.38,1.36-.26.41-.61.74-1.06.98-.45.24-.96.36-1.53.36s-1.1-.18-1.56-.56c-.46-.37-.83-.9-1.1-1.59-.27-.69-.4-1.5-.4-2.44s.13-1.77.4-2.45c.27-.68.63-1.21,1.1-1.58s.99-.56,1.56-.56c.61,0,1.12.18,1.54.53.42.36.75.84,1,1.46l3.78-.68c-.43-1.56-1.15-2.7-2.17-3.43-1.02-.73-2.33-1.1-3.95-1.1-1.07,0-2.04.19-2.91.57-.87.38-1.62.92-2.25,1.61s-1.11,1.52-1.45,2.47c-.34.95-.51,2.01-.51,3.15,0,1.53.29,2.88.86,4.06.58,1.18,1.36,2.1,2.35,2.77.99.67,2.11,1,3.37,1,.88,0,1.61-.24,2.19-.72.54-.45.94-1.08,1.23-1.88l.33,2.25h2.94v-7.92h-6.35Z"/>
    </g>
    <g>
      <path class="cls-1" d="m172.08,88.84c-1.51-.8-3.25-1.19-5.21-1.19h-6.08v18.57h6.08c1.96,0,3.7-.4,5.2-1.19,1.5-.8,2.68-1.89,3.54-3.29.86-1.4,1.29-3,1.29-4.8s-.42-3.43-1.27-4.82c-.85-1.39-2.03-2.48-3.54-3.28Zm.04,10.2c-.28.65-.68,1.2-1.19,1.67-.51.47-1.11.83-1.8,1.09s-1.44.38-2.26.38h-1.8v-10.51h1.8c.81,0,1.57.13,2.26.39.69.26,1.29.62,1.8,1.09.51.47.91,1.03,1.19,1.67.28.65.42,1.35.42,2.11s-.14,1.46-.42,2.11Z"/>
      <polygon class="cls-1" points="187.75 98.76 194.3 98.76 194.3 94.97 187.75 94.97 187.75 91.57 195.58 91.57 195.58 87.64 187.75 87.64 186.58 87.64 183.48 87.64 183.48 106.22 186.58 106.22 187.75 106.22 195.71 106.22 195.71 102.29 187.75 102.29 187.75 98.76"/>
      <path class="cls-1" d="m209.35,91.01c.74,0,1.35.2,1.82.58.47.39.77.82.92,1.3l4.19-1.25c-.37-.95-.87-1.75-1.5-2.39s-1.38-1.12-2.27-1.45c-.88-.33-1.92-.49-3.1-.49-2.16,0-3.83.5-5.02,1.5s-1.78,2.39-1.78,4.18c0,.92.19,1.74.57,2.45.38.72.91,1.32,1.59,1.82.68.5,1.48.86,2.4,1.09l2.63.66c.64.18,1.13.43,1.47.77.35.34.52.73.52,1.17,0,.57-.24,1.03-.73,1.38-.49.35-1.09.52-1.82.5-.74-.02-1.36-.22-1.84-.6-.49-.38-.83-.83-1.02-1.34l-4.22,1.19c.11.6.37,1.16.8,1.68.42.52.97.99,1.63,1.41s1.41.74,2.23.98,1.68.36,2.59.36c1.45,0,2.69-.23,3.71-.68,1.03-.45,1.81-1.09,2.35-1.92.54-.83.81-1.83.81-3,0-1.29-.42-2.45-1.26-3.46-.84-1.02-2.01-1.71-3.52-2.08l-2.63-.66c-.58-.14-1.04-.36-1.38-.65-.34-.29-.5-.66-.5-1.1,0-.64.21-1.12.62-1.46.42-.34.99-.5,1.74-.5Z"/>
      <rect class="cls-1" x="223.01" y="87.64" width="4.27" height="18.57"/>
      <path class="cls-1" d="m243.74,99.32h4.22c-.06.57-.23,1.09-.53,1.54-.37.57-.88,1.01-1.51,1.33s-1.37.48-2.2.48c-1.1,0-2.06-.25-2.89-.74-.83-.5-1.47-1.17-1.91-2.03-.44-.86-.66-1.84-.66-2.96s.23-2.1.69-2.96c.46-.86,1.09-1.53,1.9-2s1.73-.72,2.77-.72c.53,0,1.05.09,1.57.28s.99.45,1.42.78c.43.34.78.72,1.05,1.14l3.53-2.12c-.48-.78-1.08-1.47-1.8-2.07-.73-.6-1.57-1.07-2.53-1.42s-2.04-.52-3.22-.52c-1.91,0-3.59.41-5.05,1.23-1.46.82-2.6,1.95-3.44,3.4-.83,1.44-1.25,3.1-1.25,4.98s.42,3.53,1.25,4.97c.83,1.44,1.98,2.57,3.44,3.4,1.46.82,3.14,1.23,5.05,1.23,1.66,0,3.12-.32,4.38-.96,1.26-.64,2.25-1.58,2.97-2.83.67-1.16,1.02-2.56,1.07-4.2h.02v-2.53h-8.31v3.29Z"/>
      <polygon class="cls-1" points="270.99 87.64 270.99 99.02 262.84 87.64 258.35 87.64 258.35 106.22 262.63 106.24 262.63 94.57 270.99 106.22 275.26 106.22 275.26 87.64 270.99 87.64"/>
    </g>
    <g>
      <path class="cls-1" d="m166.9,111.03h-2.88l-4.89,12.58h3.06l.9-2.39h4.97l.89,2.39h3.06l-4.89-12.58h-.22Zm-2.86,7.64l1.53-4.09,1.53,4.09h-3.06Z"/>
      <path class="cls-1" d="m178.58,118.94h2.84c-.04.38-.14.74-.34,1.04-.25.38-.59.68-1.02.9-.43.22-.93.32-1.49.32-.74,0-1.4-.17-1.96-.5-.56-.34-.99-.79-1.29-1.37-.3-.58-.45-1.25-.45-2s.16-1.42.47-2c.31-.58.74-1.03,1.29-1.36s1.17-.49,1.88-.49c.36,0,.71.06,1.06.19.35.13.67.3.96.53.29.23.53.48.71.77l2.39-1.44c-.32-.53-.73-.99-1.22-1.4s-1.06-.73-1.72-.96c-.65-.23-1.38-.35-2.18-.35-1.29,0-2.44.28-3.42.84-.99.56-1.76,1.32-2.33,2.3-.56.98-.84,2.1-.84,3.37s.28,2.39.84,3.37c.56.98,1.34,1.74,2.33,2.3.99.56,2.13.84,3.42.84,1.13,0,2.11-.22,2.97-.65.85-.43,1.52-1.07,2.01-1.91.46-.78.69-1.74.72-2.84h.01v-1.71h-5.63v2.23Z"/>
      <path class="cls-1" d="m191.79,118.94h2.84c-.04.38-.14.74-.34,1.04-.25.38-.59.68-1.02.9-.43.22-.93.32-1.49.32-.74,0-1.4-.17-1.96-.5-.56-.34-.99-.79-1.29-1.37-.3-.58-.45-1.25-.45-2s.16-1.42.47-2c.31-.58.74-1.03,1.29-1.36s1.17-.49,1.88-.49c.36,0,.71.06,1.06.19.35.13.67.3.96.53.29.23.53.48.71.77l2.39-1.44c-.32-.53-.73-.99-1.22-1.4s-1.06-.73-1.72-.96c-.65-.23-1.38-.35-2.18-.35-1.29,0-2.44.28-3.42.84-.99.56-1.76,1.32-2.33,2.3-.56.98-.84,2.1-.84,3.37s.28,2.39.84,3.37c.56.98,1.34,1.74,2.33,2.3.99.56,2.13.84,3.42.84,1.13,0,2.11-.22,2.97-.65.85-.43,1.52-1.07,2.01-1.91.46-.78.69-1.74.72-2.84h.01v-1.71h-5.63v2.23Z"/>
      <path class="cls-1" d="m206.35,118.86c.71-.35,1.27-.85,1.68-1.48s.61-1.36.61-2.18-.2-1.54-.6-2.17-.96-1.13-1.66-1.49-1.52-.53-2.43-.52l-2.43.02h-2.52v12.58h2.89v-4.22h1.54l2.4,4.22h3.31l-2.85-4.73s.04-.01.05-.02Zm-4.45-5.19h1.91c.54,0,.97.14,1.3.43.33.29.49.65.49,1.1,0,.29-.08.55-.23.78s-.36.42-.62.55c-.26.13-.56.2-.9.2h-1.96v-3.06Z"/>
      <polygon class="cls-1" points="213.65 118.56 218.09 118.56 218.09 115.99 213.65 115.99 213.65 113.69 218.96 113.69 218.96 111.03 213.65 111.03 212.86 111.03 210.76 111.03 210.76 123.61 212.86 123.61 213.65 123.61 219.05 123.61 219.05 120.95 213.65 120.95 213.65 118.56"/>
      <path class="cls-1" d="m232.94,118.42v-1.71h-5.63v2.23h2.84c-.04.38-.14.74-.34,1.04-.25.38-.59.68-1.02.9-.43.22-.93.32-1.49.32-.74,0-1.4-.17-1.96-.5-.56-.34-.99-.79-1.29-1.37-.3-.58-.45-1.25-.45-2s.16-1.42.47-2c.31-.58.74-1.03,1.29-1.36s1.17-.49,1.88-.49c.36,0,.71.06,1.06.19.35.13.67.3.96.53.29.23.53.48.71.77l2.39-1.44c-.32-.53-.73-.99-1.22-1.4s-1.06-.73-1.72-.96c-.65-.23-1.38-.35-2.18-.35-1.29,0-2.44.28-3.42.84-.99.56-1.76,1.32-2.33,2.3-.56.98-.84,2.1-.84,3.37s.28,2.39.84,3.37c.56.98,1.34,1.74,2.33,2.3.99.56,2.13.84,3.42.84,1.13,0,2.11-.22,2.97-.65.85-.43,1.52-1.07,2.01-1.91.46-.78.69-1.74.72-2.84h.01Z"/>
      <path class="cls-1" d="m240.64,111.03h-2.88l-4.89,12.58h3.06l.9-2.39h4.97l.89,2.39h3.06l-4.89-12.58h-.22Zm-2.86,7.64l1.53-4.09,1.53,4.09h-3.06Z"/>
      <polygon class="cls-1" points="245.02 113.69 248.69 113.69 248.69 123.61 251.56 123.61 251.56 113.69 255.23 113.69 255.23 111.03 245.02 111.03 245.02 113.69"/>
      <path class="cls-1" d="m266.03,111.67c-.99-.56-2.12-.84-3.41-.84s-2.42.28-3.41.84c-.99.56-1.76,1.32-2.33,2.3-.56.98-.84,2.1-.84,3.37s.28,2.38.84,3.35c.56.98,1.34,1.74,2.34,2.3.99.56,2.14.84,3.43.84s2.41-.28,3.4-.84c.98-.56,1.75-1.32,2.31-2.3s.84-2.09.84-3.35-.28-2.39-.85-3.37c-.56-.98-1.34-1.74-2.33-2.3Zm-.24,7.66c-.3.58-.72,1.03-1.26,1.36-.54.32-1.16.49-1.87.49s-1.34-.16-1.89-.49-.98-.78-1.29-1.36c-.31-.58-.47-1.25-.47-2s.16-1.4.47-1.99c.31-.58.74-1.04,1.28-1.37.54-.33,1.16-.5,1.87-.5s1.33.17,1.87.5c.54.33.96.78,1.28,1.37.31.58.47,1.25.47,2s-.15,1.4-.45,1.99Z"/>
      <path class="cls-1" d="m277.79,123.61h3.31l-2.85-4.73s.04-.01.05-.02c.71-.35,1.27-.85,1.68-1.48s.61-1.36.61-2.18-.2-1.54-.6-2.17-.96-1.13-1.66-1.49-1.52-.53-2.43-.52l-2.43.02h-2.52v12.58h2.89v-4.22h1.54l2.4,4.22Zm-3.94-9.94h1.91c.54,0,.97.14,1.3.43.33.29.49.65.49,1.1,0,.29-.08.55-.23.78s-.36.42-.62.55c-.26.13-.56.2-.9.2h-1.96v-3.06Z"/>
    </g>
  </g>
</svg>